<?xml version="1.0" standalone="no"?>
<!DOCTYPE svg PUBLIC "-//W3C//DTD SVG 20010904//EN"
 "http://www.w3.org/TR/2001/REC-SVG-20010904/DTD/svg10.dtd">
<svg version="1.0" xmlns="http://www.w3.org/2000/svg"
 width="594.000000pt" height="447.000000pt" viewBox="0 0 594.000000 447.000000"
 preserveAspectRatio="xMidYMid meet">

<g transform="translate(0.000000,447.000000) scale(0.100000,-0.100000)"
fill="#000000" stroke="none">
<path d="M0 2235 l0 -2235 2970 0 2970 0 0 2235 0 2235 -567 0 -568 0 3 -1559
c2 -1551 2 -1560 -18 -1614 -29 -77 -88 -140 -168 -179 l-67 -33 -1585 0
-1585 0 -67 33 c-73 36 -123 86 -160 161 l-23 46 -3 1539 c-1 929 1 1552 7
1572 l9 34 -574 0 -574 0 0 -2235z m1931 -1547 c89 -26 154 -119 161 -228 l3
-55 -179 -3 -178 -2 6 -32 c8 -40 23 -58 65 -75 47 -20 102 -9 137 28 24 25
35 29 81 29 30 0 53 -5 53 -10 0 -25 -42 -90 -70 -110 -37 -26 -110 -50 -155
-50 -52 0 -133 29 -169 61 -82 72 -105 214 -53 321 54 111 177 163 298 126z
m535 -15 c44 -22 84 -75 84 -109 0 -23 -4 -24 -60 -24 -55 0 -61 2 -70 25 -23
61 -160 61 -160 0 0 -31 29 -46 130 -70 41 -10 91 -27 112 -38 99 -54 86 -191
-25 -249 -33 -17 -60 -22 -127 -22 -47 0 -102 5 -122 12 -38 14 -108 82 -108
106 0 8 -3 21 -6 30 -5 14 3 16 57 16 61 -1 65 -2 84 -32 24 -37 63 -53 110
-44 42 8 65 30 65 61 0 30 -32 48 -126 70 -140 32 -194 81 -179 162 12 66 52
104 130 124 52 14 169 4 211 -18z m477 16 c119 -33 186 -195 142 -344 -42
-147 -198 -209 -314 -124 l-41 29 0 -90 0 -90 -65 0 -65 0 0 310 0 311 62 -3
c61 -3 63 -4 68 -33 4 -21 7 -25 12 -14 9 23 87 59 128 59 19 0 52 -5 73 -11z
m553 -12 c67 -34 68 -40 75 -256 3 -108 8 -203 10 -211 3 -12 -9 -16 -59 -18
-57 -3 -64 -1 -69 18 -7 25 -5 25 -56 -2 -58 -30 -167 -31 -217 -3 -102 60
-87 218 25 255 17 6 71 17 119 25 95 15 116 26 116 59 0 35 -23 57 -65 63 -52
6 -93 -10 -105 -42 -9 -23 -14 -25 -75 -25 -71 0 -78 7 -51 58 23 43 62 74
113 88 60 17 198 12 239 -9z m1242 -4 c14 -11 35 -32 46 -47 20 -26 21 -41 21
-229 l0 -202 -62 0 -63 0 -3 165 c-3 205 -13 230 -89 230 -89 0 -101 -27 -106
-238 l-4 -163 -62 3 -61 3 -3 248 -2 248 62 -3 c61 -3 63 -4 68 -32 5 -27 6
-28 20 -11 8 10 33 27 55 37 51 24 146 19 183 -9z m-3256 7 c20 -6 50 -26 67
-46 25 -28 31 -43 31 -82 0 -44 -18 -86 -43 -103 -5 -4 0 -20 12 -36 16 -21
24 -53 30 -109 5 -43 12 -87 16 -96 6 -16 0 -18 -54 -18 -71 0 -76 5 -84 100
-8 88 -23 100 -128 100 l-79 0 0 -100 0 -100 -60 0 -60 0 0 250 0 250 158 0
c86 0 174 -5 194 -10z m2256 -102 c17 -62 37 -137 43 -165 7 -29 15 -50 18
-47 3 3 24 76 46 162 l40 157 65 0 64 0 42 -165 c24 -91 45 -158 48 -150 5 13
29 101 75 278 l12 42 69 0 c39 0 70 -1 70 -2 0 -2 -35 -113 -78 -248 l-78
-245 -69 0 -70 0 -42 159 c-23 87 -44 160 -45 162 -2 1 -22 -70 -44 -159 l-41
-162 -66 -3 c-55 -2 -67 0 -75 15 -11 20 -152 461 -152 475 0 4 31 8 69 8 l69
0 30 -112z"/>
<path d="M1804 590 c-29 -12 -65 -60 -62 -83 3 -17 13 -19 108 -18 103 0 105
0 102 23 -8 67 -80 106 -148 78z"/>
<path d="M2801 588 c-56 -30 -83 -114 -67 -202 21 -112 163 -141 209 -43 21
43 22 148 3 185 -31 59 -96 86 -145 60z"/>
<path d="M3360 413 c-87 -18 -110 -35 -110 -77 0 -38 14 -53 58 -62 45 -9 100
13 117 46 15 30 21 111 8 109 -5 -1 -37 -8 -73 -16z"/>
<path d="M1252 534 l3 -46 73 0 c39 1 81 1 92 1 28 1 45 37 31 67 -10 23 -15
24 -106 24 l-96 0 3 -46z"/>
<path d="M2548 4223 c-108 -41 -182 -121 -215 -232 -46 -158 49 -342 206 -402
75 -28 193 -23 266 12 142 68 219 229 181 381 -39 153 -155 248 -311 255 -59
2 -92 -1 -127 -14z"/>
<path d="M2550 3205 c-141 -47 -241 -199 -227 -348 11 -118 86 -225 196 -279
38 -19 63 -23 141 -23 84 0 101 3 148 28 184 97 244 314 132 485 -39 60 -67
85 -140 122 -57 30 -183 37 -250 15z"/>
<path d="M3570 3204 c-94 -34 -160 -96 -203 -192 -32 -71 -30 -188 5 -264 32
-69 96 -135 163 -168 42 -21 64 -25 145 -25 79 0 103 4 141 23 75 37 125 87
161 160 29 59 33 76 33 147 -1 65 -5 91 -27 137 -32 70 -96 136 -163 167 -66
32 -189 39 -255 15z"/>
<path d="M2542 2182 c-99 -36 -177 -122 -208 -230 -45 -152 35 -320 185 -394
38 -19 63 -23 141 -23 81 0 102 4 140 24 72 38 99 63 140 123 110 165 54 384
-122 478 -54 29 -75 34 -143 37 -60 3 -93 -1 -133 -15z"/>
</g>
</svg>
