<svg id="Capa_1" data-name="Capa 1" xmlns="http://www.w3.org/2000/svg" viewBox="0 0 501.47 619.06"><defs><style>.cls-1{fill:#fff;}.cls-2{fill:none;stroke:#fff;stroke-miterlimit:10;stroke-width:4px;}</style></defs><rect class="cls-1" x="131.74" y="95.2" width="249.11" height="22.4"/><rect class="cls-1" x="131.74" y="202.1" width="249.11" height="22.4"/><rect class="cls-1" x="131.74" y="309.01" width="249.11" height="22.4"/><rect class="cls-1" x="131.74" y="415.92" width="249.11" height="22.4"/><polyline class="cls-2" points="39.87 95.88 58.2 115.22 92.86 75.17"/><polyline class="cls-2" points="46.77 202.79 65.1 222.13 99.76 182.08"/><polyline class="cls-2" points="46.77 309.69 65.1 329.04 99.76 288.98"/><polyline class="cls-2" points="46.77 416.6 65.1 435.94 99.76 395.89"/><path class="cls-1" d="M495.77,516.39a67.14,67.14,0,0,0-7.94.53v-345A68.08,68.08,0,0,0,420,104.06H129.44a68.07,68.07,0,0,0-67.88,67.88V617.21a68.08,68.08,0,0,0,67.88,67.88H413.08l38,38,.16-.16.16.16,91.9-91.9,3.22-3.22a67.44,67.44,0,0,0-50.78-111.61ZM129.65,655.74A49.7,49.7,0,0,1,80.1,606.19V182.37a49.69,49.69,0,0,1,49.55-49.55H414.19a49.69,49.69,0,0,1,49.55,49.55V524.62A68.21,68.21,0,0,0,451.58,533l-.15-.16,0,0A67.22,67.22,0,0,0,337.2,581c0,18.27,6.65,34.13,18.47,46.25l.64.72,27.74,27.74Zm385.79-36-2.18,2.19L451,684.19l-64.43-64.44-.43-.48a43.9,43.9,0,0,1-12.52-31.33A45.53,45.53,0,0,1,451,555.34l0,0,.11.1a45.6,45.6,0,0,1,64.33,64.33Z" transform="translate(-61.56 -104.06)"/></svg>