<svg id="Capa_1" data-name="Capa 1" xmlns="http://www.w3.org/2000/svg" viewBox="0 0 563.48 531.36"><defs><style>.cls-1{fill:#7D58A6;}</style></defs><path class="cls-1" d="M542,214.23c-104.33-4.95-208.7-9.11-313.06-13.38-14.19-.58-32.47-4.55-33.48,17.2-1.05,22.38,18,18.74,31.87,19.39,94.93,4.42,189.88,8.45,284.81,12.93,11.09.52,27.37-4.47,19.39,18.9C513,323.5,495.35,378.06,479.22,433c-4.9,16.73-14.48,17.17-27.78,17.12-80.43-.26-160.87-.72-241.28.3-19.11.25-24-6.77-27-24.5-13.51-80.22-28.93-160.12-43.56-240.16-2.28-12.44-3.73-25.36-17.59-30.86-26.17-10.4-52.37-20.76-78.79-30.5-11-4.07-21.44-1.5-26,10.34-4.89,12.75,3.89,19.47,14.09,23.83C48.6,166,65.77,173.67,83.55,179.4c14.89,4.81,21.17,13.75,23.76,28.86,12.53,73,25.8,145.87,39.22,218.71,3.2,17.33,2.39,42.35,13.18,49.93,25.31,17.77,13,33.72,6.82,52.14C163,539.62,156,556.52,169.47,559.2c23.8,4.75,10.5,15.47,8.36,25.48-5.35,25,1.36,45.9,23.25,59.93,19.32,12.38,39.87,12.32,59.06-.34,21.67-14.3,28.32-35.24,22.55-60.16-1.56-6.77-4.47-13.22-7.12-20.85h108c-12.27,44.48-8,66.24,17.15,81.58,22,13.45,44.65,12.31,63.79-4.9,23.45-21.1,25.29-46.63,7.81-75.43,13.71-3.54,31.8-.18,28.91-18.86-2.52-16.31-18.73-13.4-31-13.42-80.43-.1-160.86,0-241.29-.09-30.11,0-31.77-4.08-20-31.32,6.24-14.49,16.54-13.21,28-13.21,78.34,0,156.68-.61,235,.42,21.61.29,31.66-7.81,37.81-28.13,20.21-66.83,42.21-133.12,63.19-199.73C585.25,220.81,582.55,216.15,542,214.23ZM430.54,574.9c13.49,3,22.85,10.34,22.17,25.23s-10.81,23.23-24.43,22.53S404.8,612.51,405.65,598C406.47,583.82,416.14,576.25,430.54,574.9ZM207.88,596.52c1.3-13.56,10.26-21.19,22.77-20.85,14.16.38,22.15,9.66,22.79,22.71-1.54,16.77-11,25-24.74,23.92S206.43,611.68,207.88,596.52Z" transform="translate(-15.9 -122.64)"/></svg>