<?xml version="1.0" encoding="UTF-8"?>
<svg id="Capa_2" data-name="Capa 2" xmlns="http://www.w3.org/2000/svg" viewBox="0 0 360.25 408.86">
  <defs>
    <style>
      .cls-1, .cls-2 {
        fill: #fff;
      }

      .cls-2 {
        opacity: .44;
      }
    </style>
  </defs>
  <g>
    <path class="cls-1" d="m277.33,257.25c.28-5.44-.81-10.84-1.7-16.18-.22-1.3-.42-2.6-.59-3.91-.08-.62-.14-1.24-.21-1.85-.01-.1-.02-.18-.03-.25,0-.03,0-.08,0-.16-.02-.34-.04-.69-.05-1.03-.11-2.75.07-5.53.57-8.24.02-.09.03-.15.03-.18.02-.08.04-.17.07-.3.07-.29.13-.58.2-.87.18-.72.37-1.44.59-2.16.39-1.28.85-2.55,1.37-3.79.93-2.22,2.26-4.52,3.91-6.82.26-.35.42-.76.53-1.18.35-.45.69-.91,1.04-1.35,2.07-2.62,4.24-5.19,5.88-8.12,3.66-6.56,4.17-13.98,2.32-21.19-1.67-6.51-4.5-12.95-7.56-19.14-3.1-6.27-5.69-11.76-6.55-18.6-.41-3.25-.5-6.56-1.28-9.75-.83-3.44-2.39-6.61-4.71-9.29-4.54-5.26-11.26-8.39-17.85-10.21-3.76-1.04-7.66-1.71-11.56-1.93-3.91-.22-7.81.09-11.71.44-3.63.33-6.37.66-9.92.7-1.69.02-3.39-.04-5.07-.25-.28-.03-.55-.07-.82-.11-.01,0-.67-.13-.78-.15-.86-.2-1.72-.43-2.56-.72-.39-.14-.77-.28-1.15-.45-.01,0-.65-.32-.73-.35-.66-.36-1.31-.76-1.93-1.2-.31-.22-.6-.46-.91-.69-.08-.06-.14-.11-.19-.14-.04-.04-.09-.1-.17-.17-.54-.53-1.07-1.06-1.57-1.62-2.33-2.62-3.45-4.58-5.22-7.26-1.81-2.73-3.64-5.5-5.99-7.81-2.53-2.49-5.4-4.38-8.63-5.81-6.02-2.67-13.29-3.12-19.55-1.03-5.95,1.98-10.89,5.76-15.64,9.75-2.25,1.89-4.47,3.8-6.82,5.55-.52.38-1.05.76-1.58,1.12-.12.07-.92.58-1.09.68-1.3.78-2.65,1.49-4.06,2.06-.24.1-.48.19-.72.28-.12.04-.59.19-.65.21-.79.23-1.59.42-2.4.57-1.87.35-2.6.4-4.27.45-3.46.1-6.92-.19-10.38-.31-6.69-.24-13.14.52-19.28,3.31-5.86,2.66-11.01,6.88-14.83,12.05-4.1,5.54-6.09,12.03-6.78,18.82-.73,7.16-.14,14.79-2.09,21.68-2.15,7.6-6.11,14.63-8.95,21.98-2.37,6.12-3.81,12.38-3.55,18.98.06,1.6.24,3.22.64,4.78.4,1.58,1.32,2.85,1.88,4.34.6,1.6,2.97.4,2.38-1.19-.47-1.25-.31-3.02-.46-4.35-.17-1.5-.16-3.02-.09-4.53.16-3.1,1.13-6.1,2.12-9.02,2.28-6.78,6.05-12.81,9.11-19.24,3.28-6.9,5.74-14.11,6.25-21.77.24-3.6.29-7.21.63-10.8.31-3.26.72-5.72,1.92-8.89.23-.61.5-1.21.77-1.81.08-.17.25-.52.28-.57.11-.22.23-.43.35-.64.77-1.38,1.65-2.71,2.63-3.96.33-.42.67-.84,1.02-1.24.12-.13.42-.46.45-.49.25-.27.51-.53.77-.79,1.05-1.03,2.16-2,3.33-2.89.29-.22.59-.44.89-.65.03-.02.4-.27.55-.37.56-.36,1.13-.71,1.72-1.04,1.28-.72,2.61-1.36,3.98-1.91,1.06-.43,1.64-.63,3.23-1.03,1.43-.36,2.88-.62,4.34-.78,5.83-.63,13.35.6,19.86.05,6.4-.54,11.93-3.19,17.05-6.93,4.54-3.32,8.61-7.22,13.18-10.51.07-.05.13-.09.17-.13.04-.03.1-.06.16-.1.3-.19.59-.38.9-.57.5-.31,1.01-.6,1.52-.88.62-.34,1.25-.65,1.89-.94.32-.15.64-.28.97-.42.1-.04.81-.28.92-.33,1.27-.38,2.57-.68,3.89-.85.03,0,.61-.06.73-.07.3-.02.6-.03.9-.03.76-.01,1.52.01,2.28.08.69.05,1.38.15,2.06.26.19.04.61.12.66.13.31.07.62.15.92.24.67.19,1.34.4,1.99.64.36.13.71.27,1.06.42.23.1.47.2.7.31-.38-.2-.36-.19.07.03,1.23.66,2.41,1.39,3.52,2.25.24.19.47.38.71.58.09.1.5.48.53.5.54.54,1.06,1.1,1.56,1.68,3.82,4.47,6.23,10.1,10.8,14.62,5.26,5.19,12.14,7.27,19.42,7.32,7.16.05,13.79-1.35,20.63-1.23,1.7.03,3.4.15,5.09.35,1.93.23,3.18.46,4.89.87,1.8.44,3.58.98,5.33,1.61.62.23,1.24.47,1.85.72.35.15.71.3,1.06.46.16.07.33.15.49.23.05.03.13.07.29.15,1.24.68,2.46,1.38,3.61,2.2.31.22.62.45.91.69.02.02.44.36.55.45.6.54,1.16,1.11,1.69,1.72.36.42.7.86,1.03,1.31.09.14.36.56.37.58.19.33.37.66.53,1,.68,1.37.92,2.23,1.26,4.01.63,3.23.69,6.53,1.2,9.78.53,3.34,1.56,6.57,2.78,9.72,2.4,6.2,5.79,11.92,8.65,17.9,2.71,5.68,4.13,11.81,3.31,17.99,0-.06-.06.38-.1.63-.05.21-.16.77-.14.71-.18.79-.41,1.57-.68,2.33-.14.39-.29.77-.45,1.14,0,0-.32.67-.35.74-.36.67-.74,1.32-1.15,1.96-1.82,2.82-4.05,5.34-6.09,8-2.06,2.68-3.83,5.63-4.93,8.83,0,.01,0,.02,0,.04-1.13,2.54-2.02,5.19-2.61,7.89-1.26,5.75-1.3,11.4-.48,17.21.36,2.54.84,5.06,1.25,7.6.41,2.54.73,4.88.78,6.95.03,1.23,0,2.45-.12,3.67-.05.55-.13,1.09-.21,1.63,0,.06-.01.1-.02.14,0,.03-.02.07-.03.13-.08.37-.17.74-.27,1.11-.28,1.04-.63,2.06-1.04,3.05-.12.29-.26.57-.38.87-.02.04-.03.07-.04.1-.02.04-.04.08-.07.13-.3.56-.6,1.11-.93,1.65-.59.97-1.25,1.91-1.95,2.81-.28.36-.57.71-.87,1.06-.07.07-.16.17-.19.2-.27.28-.53.56-.8.83-.82.82-1.68,1.6-2.58,2.34-.45.37-.91.73-1.38,1.08-.26.19-.53.38-.79.57-.12.09-.18.13-.21.16-.04.03-.11.07-.24.15-1.98,1.27-4.06,2.39-6.23,3.31-.6.26-1.21.49-1.81.72-.04.02-.21.08-.3.11-.19.06-.38.13-.57.19-1.34.43-2.7.78-4.06,1.11-5.28,1.27-10.62,2.14-15.74,4-4.84,1.76-9.35,4.69-12.94,8.39-3.52,3.63-5.82,7.8-8.22,12.19-1.03,1.87-2.12,3.71-3.47,5.38-.07.06-.5.55-.64.68-.41.4-.85.75-1.3,1.11-.03.02-.06.05-.1.07.03-.02.06-.03.1-.06-.04.02-.08.05-.12.07-.1.06-.19.12-.18.11-.1.06-.2.12-.3.17-.2.11-.41.22-.62.31-.09.04-.48.2-.58.25-.53.16-1.07.25-1.61.37-.05.01-.19.03-.29.04-.16,0-.33.01-.49.01-.55,0-1.09-.04-1.64-.1-.22-.03-.44-.06-.66-.1-.09-.02-.52-.11-.66-.15-2.26-.57-4.42-1.5-6.53-2.5-.3-.14-.6-.29-.89-.43,0,0,0,0,0,0-.03-.01-.05-.03-.11-.05-.53-.26-1.06-.53-1.59-.79-1.43-.71-2.86-1.42-4.31-2.06-2.44-1.07-4.96-1.98-7.53-2.7-5.47-1.55-11.18-2.4-16.86-2.42-5.72-.02-11.3.91-16.89,2.03-2.61.52-5.23,1.04-7.88,1.37-1.42.18-1.89.23-3.34.26-1.33.03-2.65-.03-3.97-.17-.47-.05-.94-.12-1.41-.2-.14-.03-.41-.08-.49-.1-.32-.07-.65-.15-.97-.24-1.14-.31-2.25-.71-3.34-1.18-.05-.02-.09-.04-.13-.05-.02-.02-.07-.04-.14-.08-.28-.16-.56-.31-.84-.48-.44-.27-.87-.55-1.28-.86-.14-.11-.28-.22-.42-.33-.07-.06-.34-.29-.41-.36-.51-.5-.98-1.03-1.41-1.6-.08-.11-.16-.22-.24-.33-.02-.04-.04-.07-.06-.1-.2-.37-.43-.74-.62-1.12-.19-.38-.36-.76-.52-1.16-.07-.17-.13-.35-.2-.53.37.94.05.13-.02-.11-.25-.82-.44-1.65-.58-2.49-.08-.43-.14-.85-.19-1.28-.03-.24-.06-.48-.08-.72,0-.06-.03-.31-.04-.46,0-.13-.01-.25-.02-.27-.01-.2-.02-.4-.03-.59-.02-.45-.03-.9-.03-1.34-.01-.96,0-1.91.03-2.87.05-1.88.15-3.76.2-5.63.12-3.81.13-7.75-.78-11.48-1.08-4.43-3.41-8.13-6.97-10.99-2.13-1.71-4.61-2.92-6.98-4.26-2.07-1.16-3.99-2.49-5.85-3.96-.07-.05-.12-.1-.17-.13-.02-.02-.05-.04-.08-.07-.24-.22-.48-.44-.71-.66-.37-.36-.73-.73-1.08-1.1-.39-.42-.77-.86-1.13-1.31-.2-.25-.4-.5-.59-.76-.05-.07-.31-.45-.4-.57-.54-.86-1.02-1.75-1.43-2.68-.12-.28-.24-.57-.35-.86-.01-.05-.03-.09-.04-.15-.18-.63-.35-1.26-.47-1.91-.11-.57-.19-1.15-.25-1.73,0-.05,0-.08-.01-.11,0-.06,0-.12,0-.21,0-.26-.01-.51-.01-.77,0-1.23.11-2.46.3-3.67.02-.11.08-.45.1-.55.04-.17.08-.35.12-.52.14-.58.29-1.16.46-1.73.36-1.22.78-2.42,1.26-3.61,1.05-2.61,1.61-3.71,2.97-6.16,1.34-2.41,2.78-4.77,4.14-7.17,3-5.29,5.65-10.73,6.7-16.77.99-5.67-.46-11.13-1.09-16.74,0-.02-.02-.3-.03-.4-.01-.24-.03-.49-.03-.73-.02-.61,0-1.22.03-1.82.03-.52.1-1.03.16-1.55,0-.04,0-.07.01-.1.06-.29.13-.59.21-.88.27-1.01.63-1.97,1.03-2.93.02-.05.03-.08.05-.12.11-.21.22-.42.33-.62.31-.56.65-1.1,1.01-1.62.26-.38.54-.76.82-1.12.08-.1.16-.19.23-.29.05-.06.25-.3.33-.38.75-.8,1.57-1.54,2.44-2.22.18-.14.37-.27.55-.42.05-.04.07-.05.1-.08.02-.01.03-.01.06-.03.44-.28.89-.54,1.34-.78.46-.24.93-.47,1.4-.67.21-.09.43-.16.64-.26.06-.02.09-.03.12-.05.08-.02.15-.05.23-.07,1.06-.32,2.14-.54,3.23-.68.33-.04.65-.08.98-.11.05,0,.11,0,.18,0,.67-.04,1.34-.06,2.01-.08,2.68-.07,5.36-.06,8.03-.41,4.83-.64,9.18-3.02,12.43-6.62,3.04-3.37,5.24-7.26,7.56-11.14,1.16-1.94,2.35-3.86,3.72-5.65.28-.37.58-.73.88-1.09.03-.04.06-.07.08-.1.01-.01.03-.02.04-.04.16-.15.3-.32.45-.47.7-.72,1.46-1.38,2.25-1.99.2-.16.44-.29.63-.47,0,0,0,0,0,0,.39-.22.76-.47,1.15-.69.92-.51,1.87-.96,2.84-1.35.16-.06.32-.12.48-.18.02,0,.02,0,.04-.01.45-.14.91-.28,1.37-.4.97-.25,1.96-.45,2.95-.59.21-.03.42-.06.63-.08,0,0,.18-.02.34-.04.18-.01.52-.04.53-.04.21,0,.42-.02.64-.02,1.01-.02,2.02.01,3.02.11.48.04.95.1,1.42.17.21.03.42.07.63.1.01,0,.02,0,.03,0,0,0,0,0,.02,0,.97.27,1.95.47,2.9.79.79.27,1.56.59,2.33.93.1.05.55.27.74.38.5.28,1,.58,1.48.9.66.44,1.28.91,1.9,1.41-.05-.02.73.68.85.8.37.38.73.77,1.07,1.18.33.39.65.79.95,1.2.19.26.38.52.57.78.05.07.23.33.3.43.61.92,1.19,1.86,1.77,2.79,1.39,2.24,2.78,4.51,4.48,6.53,3.71,4.42,8.68,6.71,14.34,7.43,5.11.65,10.29.03,15.39.8.1.02.51.09.6.1.16.04.33.07.49.11.52.13,1.03.27,1.53.44.5.17,1,.35,1.49.55.22.09.43.19.65.28.06.03.11.05.15.07.04.02.09.05.16.09.93.51,1.84,1.06,2.7,1.68.38.28.76.56,1.12.86-.02-.01.35.31.49.42.16.16.41.39.45.44.76.75,1.47,1.55,2.13,2.38.3.39.6.79.87,1.19.03.04.05.08.09.14.18.3.37.61.54.92.52.93.99,1.89,1.38,2.87.07.16.13.33.19.49.03.08.06.17.07.21.18.62.36,1.24.5,1.88.12.52.21,1.04.29,1.56.03.17.09.78.11.93.07,1.23.02,2.46-.1,3.68-.06.56-.14,1.12-.22,1.68.01-.09-.11.57-.14.78-.06.27-.16.76-.15.68-.28,1.25-.61,2.5-.95,3.74-1.42,5.2-3.09,10.52-2.72,15.98.31,4.61,1.98,8.87,3.95,13.01.88,1.85,1.81,3.67,2.66,5.53.4.88.79,1.77,1.14,2.67.08.21.16.43.24.65,0,.01,0,.02,0,.03.15.49.31.99.44,1.49.22.87.38,1.75.49,2.64,0,.18.01.35.01.53,0,.56-.03,1.11-.09,1.66-.02.18-.05.37-.08.55,0,.03-.01.04-.02.08-.15.51-.28,1.01-.47,1.51-.09.23-.19.46-.28.69,0,.02-.01.03-.02.04-.03.04-.06.09-.1.15-.33.51-.64,1.03-1.01,1.52-.09.12-.19.24-.29.36-.07.07-.28.31-.35.39-.39.4-.8.78-1.22,1.14-.38.33-.78.64-1.18.93.05-.03-.42.29-.57.4-.19.12-.58.36-.66.41-2.07,1.24-4.28,2.26-6.52,3.15-4.39,1.75-8.94,3.1-13.03,5.52-4.56,2.71-8.38,6.47-9.99,11.64-.4,1.27-.65,2.58-.89,3.88-.3,1.55-.42,2.48-.73,3.76-.15.62-.31,1.24-.51,1.84-.11.33-.24.66-.36.99-.01.03-.1.21-.15.31-.28.51-.64.96-.96,1.45,0,0,0,.01-.01.02-.03.02-.04.03-.08.06-.19.17-.37.35-.57.52-.16.14-.33.26-.5.39-.02.01-.03.02-.06.03-.41.2-.81.41-1.22.6-.06.03-.17.07-.27.1-.14.04-.27.08-.41.12-.5.13-1.02.23-1.53.3-.12.02-.24.03-.36.04-.12,0-.32.03-.41.03-.49,0-.98.01-1.47-.01-.44-.02-.88-.06-1.32-.1-.28-.03-.55-.07-.83-.11-.08-.01-.56-.1-.72-.13-.19-.04-.43-.1-.42-.1-.22-.05-.44-.11-.65-.16-.43-.11-.86-.24-1.29-.37-1.08-.34-2.14-.75-3.18-1.2-2.46-1.08-4.86-2.3-7.33-3.36-5.07-2.19-10.61-3.53-16.08-2.09-1.36.36-2.7.85-4.02,1.34-.58.22-1.15.44-1.73.66-.7.27-1.24.47-1.6.58-1.04.32-2.08.6-3.16.75-.1.01-.38.05-.48.06-.14,0-.29.02-.43.02-.57.01-1.15,0-1.72-.05-.5-.04-.99-.11-1.49-.19-.13-.04-.78-.18-.9-.22-.5-.14-.99-.3-1.48-.47-.27-.1-.54-.2-.8-.31-.09-.04-.42-.19-.56-.25-.8-.41-1.56-.88-2.29-1.41-.38-.27-.75-.56-1.11-.87-.06-.05-.12-.11-.15-.14-.24-.25-.49-.48-.72-.74-.35-.38-.69-.77-1-1.18-.16-.21-.32-.42-.47-.63-.02-.04-.04-.07-.07-.12-.55-.95-1.03-1.92-1.41-2.95-.01-.03-.02-.04-.02-.06-.02-.05-.03-.1-.05-.18-.06-.22-.14-.45-.2-.67-.15-.51-.29-1.02-.42-1.53-.29-1.08-.54-2.17-.84-3.25-.6-2.21-1.31-4.46-2.52-6.42-1.59-2.57-3.73-4.38-6.46-5.68-2.42-1.15-5.04-1.71-7.51-2.72-.26-.1-.51-.21-.76-.33-.03-.01-.05-.02-.08-.03-.05-.03-.1-.06-.17-.1-.41-.25-.83-.49-1.23-.76-.49-.33-.97-.7-1.43-1.08-.03-.03-.06-.06-.11-.11-.26-.26-.52-.51-.76-.78-.33-.36-.64-.72-.94-1.11-.19-.24-.37-.48-.54-.73-.03-.05-.05-.06-.06-.09-.03-.06-.06-.11-.11-.2-.52-.92-1-1.84-1.38-2.82-.04-.13-.12-.36-.14-.43-.09-.29-.16-.58-.23-.88-.11-.47-.2-.95-.27-1.43-.03-.19-.05-.38-.07-.57,0-.08-.02-.47-.02-.55-.01-.71.02-1.42.1-2.12.02-.18.17-1.01.16-1.05.12-.53.26-1.05.43-1.57.18-.55.4-1.09.62-1.62.03-.07.05-.12.07-.17.17-.34.37-.68.56-1.01,1.17-1.93,2.52-3.42,4.32-4.57,2.26-1.44,4.71-2.56,6.8-4.25,2.24-1.81,3.81-4.2,4.96-6.81,2.11-4.81,2.24-10.45,3.2-15.39.41-2.1,1.26-4.82,2.22-6.47.27-.47.57-.93.88-1.38.2-.28.4-.55.61-.82.04-.05.39-.46.39-.46.67-.71,1.77-1.65,2.3-1.98.98-.62,1.89-1,2.68-1.2,1.39-.36,1.91-.41,3.26-.3.21.02.41.04.62.07.1.02.26.05.3.06.56.16,1.14.33,1.67.58,0,.03.78.49.85.55.2.14.38.29.57.43.11.08.17.12.21.15.02.03.06.08.17.18,3.38,3.39,5.98,7.73,10.72,9.4,4.49,1.58,9.15.08,13.14-2.13,1.87-1.04,3.66-2.22,5.52-3.29,2.05-1.18,3.77-2,5.86-2.5,2.44-.58,4.23-.7,6.79-.43,1.28.13,1.46.16,2.77.52,1.21.34,2.42.75,3.55,1.29-.03,0,.71.4.86.49.51.31,1.01.64,1.49,1,.13.1.7.59.76.62.41.38.79.79,1.15,1.22,1.14,1.37,1.87,2.97,1.82,4.69-.06,2.23-1.12,4.53-2.09,6.72-1.15,2.6-2.24,5.22-2.49,8.09-.47,5.22,2.08,9.95,3.91,14.65.83,2.13,1.42,4.47,1.23,6.77-.08.93-.33,1.83-.82,2.62-.03.05-.58.75-.53.74-.32.34-.67.64-1.04.92-.03.02-.04.03-.05.04-.03.02-.06.03-.11.06-.16.09-.31.18-.47.26-.32.17-.66.31-.99.45-.05.02-.08.03-.12.05-.02,0-.04.01-.08.02-.22.07-.45.14-.68.2-.46.12-.93.22-1.4.31-1.84.34-3.71.48-5.57.64-4.16.36-8.23.96-11.75,3.37-4.21,2.87-6.59,7.44-10.16,10.95-1.53,1.51-3.31,2.89-5.44,3.2-.45.06-1.63,0-1.95-.07-.47-.11-.95-.26-1.39-.47.36.18-.87-.64-.58-.38-1.2-1.05-1.15-2.64-.76-4.25.55-2.28,1.43-4.56,1.45-6.94.06-5.02-3.4-8.22-7.17-10.96-3.24-2.35-6.25-4.75-6.56-9.17-.13-1.87.32-3.1,1.28-4.49.74-1.06,1.74-1.77,3.07-1.47,1.2.27,2.29.94,3.5,1.22,1.21.28,2.41.33,3.64.11,2.16-.39,4.03-1.64,5.78-2.88,1.42-1,2.77-2.09,4.36-2.81,1.73-.78,3.74-.67,5.45.1,3.73,1.69,4.86,6.18,3.15,9.7-.92,1.89,2.22,3.38,3.31,1.62,2.56-4.14,2.32-10.28-1.38-13.72-3.85-3.59-9.51-4.17-14.05-1.55-1.83,1.06-3.45,2.46-5.25,3.52-1.78,1.05-2.84,1.32-4.8.46-2.56-1.12-4.9-1.8-7.6-.68-2.06.86-3.69,2.55-4.7,4.51-2.4,4.63-1.64,10.15,1.24,14.41,2.55,3.77,7.09,5.63,9.79,8.81.41.48.89,1.29,1.03,1.82.22.87.16,1.9,0,2.67-.48,2.42-1.51,4.75-1.58,7.25-.15,5.49,4.33,9.37,9.65,9.48,5.65.11,9.87-3.79,13.24-7.89,1.61-1.96,3.07-4.05,4.92-5.8.85-.81,1.75-1.54,2.79-2.09,1.1-.57,1.35-.65,2.44-.93,3.81-.98,7.79-.79,11.65-1.48,4.46-.8,8.37-3.05,10.25-7.32,2.38-5.4.16-11.36-1.86-16.47-.87-2.19-1.78-4.47-1.97-6.85-.18-2.23.68-4.55,1.64-6.71,1.23-2.75,2.58-5.36,3.11-8.35.48-2.69.11-5.37-.99-7.87-2.12-4.82-6.87-8.24-11.72-9.94-5.04-1.76-10.92-1.85-16.01-.25-4.68,1.48-8.46,4.42-12.79,6.61-.49.25-1,.49-1.51.7-.19.08-.38.15-.57.23-.03,0-.05.02-.07.02-.5.14-1,.28-1.52.37-.12.02-.24.04-.36.05.22-.04-.39.03-.55.03-.23,0-1.29-.17-1.1-.09-.42-.11-.83-.24-1.23-.41-.03-.01-.05-.02-.08-.03-.04-.03-.09-.06-.14-.1-.19-.13-.39-.24-.58-.38-.24-.17-.47-.34-.7-.52-.04-.03-.06-.05-.08-.07-.13-.12-.26-.24-.39-.37-3.59-3.54-6.21-8-11.38-9.47-5.64-1.6-11.83.16-15.99,4.24-4.35,4.26-6.12,9.76-7.13,15.61-.86,4.97-1.04,10.34-3.79,14.22-1.29,1.82-3.35,2.95-5.56,4.19-2.63,1.48-4.95,3.15-6.93,5.44-7.15,8.32-6.49,21.25,1.53,28.76,2.1,1.96,4.43,3.45,7.11,4.5,1.28.5,2.6.89,3.91,1.33,1.35.45,2.5.88,3.4,1.45.24.15.47.32.7.48.08.06.15.11.21.15,0,.02.04.05.1.11.31.31.59.65.86.99.07.1.19.26.23.33.13.24.27.48.4.73.25.5.47,1.02.68,1.54.02.05.03.07.05.12,0,.03.01.05.03.11.09.27.17.55.25.83.15.5.28,1.01.41,1.52.29,1.14.56,2.29.86,3.43,1.35,5.07,3.79,9.3,7.92,12.59,3.78,3.01,8.88,4.82,13.73,4.7,2.85-.07,5.43-.74,8.1-1.7,2.63-.94,4.34-1.82,7.06-2.23,2.24-.34,4.55.13,6.91.92,2.61.87,5.1,2.08,7.58,3.25,4.42,2.09,8.94,3.87,13.9,4.03,4.94.16,9.72-1.35,12.98-5.19,1.94-2.28,2.88-5.17,3.46-8.05.58-2.89.76-5.12,1.96-7.94.02-.05.04-.09.06-.11.18-.32.36-.63.56-.94.26-.41.56-.79.85-1.17.06-.08.1-.13.13-.18.04-.04.09-.09.17-.16.17-.17.34-.34.51-.51.44-.42.9-.82,1.38-1.19.29-.23.59-.44.89-.66.02-.02.08-.05.13-.09.52-.33,1.05-.64,1.59-.94,1.12-.62,2.27-1.16,3.44-1.67,1.06-.46,2.14-.88,3.22-1.29.24-.09.48-.18.72-.26-.05.02.35-.12.58-.2.2-.07.69-.24.63-.22.55-.19,1.11-.38,1.66-.58,2.33-.82,4.67-1.69,6.87-2.83,4.95-2.55,9.39-6.2,11.49-11.49,3.55-8.94-1.99-17.49-5.54-25.39-.43-.95-.76-1.96-1.2-2.9-.01-.02-.01-.02-.02-.04,0-.03-.01-.04-.02-.08-.07-.21-.13-.41-.2-.62-.17-.57-.33-1.14-.46-1.71-.11-.47-.2-.94-.28-1.42-.04-.28-.08-.56-.11-.84-.01-.11-.02-.16-.03-.19,0-.07,0-.15,0-.25-.04-1.4.03-2.78.22-4.17.04-.28.08-.55.12-.83-.01.09.11-.56.14-.77.06-.26.16-.74.14-.67.06-.28.13-.55.19-.83.33-1.39.71-2.76,1.1-4.13.8-2.89,1.57-5.78,2.06-8.74,1.73-10.37-2.91-20.81-11.4-26.92-4.34-3.13-9.42-4.62-14.72-4.97-2.76-.18-5.53-.11-8.3-.2-2.79-.09-4.9-.24-7.08-.94-2.27-.73-3.74-1.74-5.23-3.37-.81-.89-1.52-1.85-2.22-2.82-.03-.04-.11-.16-.16-.24-.15-.22-.29-.45-.44-.67-.38-.6-.76-1.2-1.13-1.8-2.66-4.29-5.38-8.35-9.57-11.29-7.24-5.07-17.22-6.46-25.62-3.75-4.31,1.39-8.37,3.62-11.46,6.97-3.28,3.56-5.63,7.7-8.1,11.83-1.17,1.95-2.37,3.88-3.78,5.67-.18.22-.36.44-.53.66-.01.01-.02.03-.04.05-.36.38-.72.77-1.11,1.13-.32.3-.65.6-.99.88-.26.21-.52.4-.79.61-.06.04-.08.07-.11.09-.04.02-.08.04-.14.08-.39.22-.78.45-1.18.65-.31.15-.62.28-.93.42-.04.02-.18.07-.27.1-1.2.39-2.46.59-3.71.74-.1.01-.18.02-.24.03-.37.03-.74.04-1.11.06-.53.02-1.07.04-1.61.05-1.34.03-2.69.04-4.03.1-5.53.27-10.49,1.72-14.92,5.15-3.89,3.02-6.93,7.4-8.36,12.11-1.66,5.46-.73,10.82.12,16.33.11.72.21,1.43.3,2.15.1.87.08.62.11,1.35.06,1.58-.06,3.15-.3,4.71,0,.02-.06.3-.08.4-.05.25-.11.5-.17.75-.18.73-.39,1.45-.62,2.17-.46,1.45-1.02,2.86-1.64,4.25-2.09,4.67-5.55,9.81-8.12,14.75-2.56,4.92-4.67,10.04-5.33,15.59-.64,5.43.55,11.02,3.55,15.6,2.97,4.54,7.14,8.12,11.82,10.82,2.42,1.4,4.98,2.6,7.21,4.31.18.14.37.29.54.44.07.07.38.37.44.43.35.36.68.73,1,1.13.13.17.25.36.39.52,0,0,0,0,0,.02.22.4.46.8.66,1.21.2.41.37.83.55,1.26.05.16.1.32.15.48.26.9.45,1.81.59,2.73.07.42.12.85.17,1.27,0,.01,0,.07.01.13,0,.05.04.53.05.57.06.98.07,1.97.07,2.96-.03,7.94-1.42,16.45,2.21,23.87,2.41,4.93,6.9,8.39,12.03,10.15,5.48,1.88,11.29,1.81,16.95,1,5.65-.81,11.18-2.35,16.87-2.9.85-.08.78-.07,1.63-.12.67-.03,1.33-.06,2-.07,1.48-.02,2.97,0,4.45.1,1.41.08,2.81.22,4.21.4.59.08,1.17.16,1.76.26,1.07.17,1.12.19,2.01.38,2.75.6,5.46,1.4,8.1,2.39,1.32.5,2.62,1.04,3.9,1.63.32.15.63.3.95.45.04.02.14.07.22.11.6.3,1.2.59,1.8.89,4.72,2.33,9.81,4.9,15.23,4.65,5.79-.28,10.34-3.44,13.58-8.12,2.71-3.92,4.42-8.44,7.29-12.26,2.74-3.65,6.51-6.65,11-8.65,2.35-1.04,4.41-1.61,7.15-2.26,2.79-.66,5.61-1.19,8.4-1.84,10.44-2.45,20.39-7.82,26.56-16.84,3.1-4.53,4.95-9.85,5.24-15.33Z"/>
    <path class="cls-2" d="m201.9,313.35c-.13.07-.19.11-.2.12.06-.04.12-.07.18-.11,0,0,.01,0,.02-.01Z"/>
  </g>
  <path class="cls-1" d="m79.88,81.73c-.39-.96-.82-1.81-1.38-2.7-1.16-1.84-2.43-3.62-3.8-5.32-2.56-3.19-5.31-6.22-8.1-9.22-2.78-2.99-5.68-5.88-8.65-8.69-1.48-1.41-3-2.79-4.56-4.12-1.62-1.39-3.27-3-5.2-3.91-1.1-.52-2.24.54-1.67,1.67.9,1.78,2.37,3.27,3.66,4.78,1.33,1.56,2.68,3.1,4.03,4.64,2.76,3.13,5.52,6.26,8.3,9.37,2.72,3.05,5.4,6.14,8.14,9.17,1.37,1.51,2.82,2.95,4.31,4.33.77.71,1.53,1.3,2.38,1.88.78.53,1.47,1.36,2.43,1.5.53.08.97-.21,1.01-.77.07-.97-.57-1.75-.92-2.63Z"/>
  <path class="cls-1" d="m121.47,58.41c-.51-2.24-1.13-4.46-1.92-6.61-1.6-4.33-3.45-8.56-5.67-12.61-4.4-8.04-9.81-15.55-15.76-22.52-.66-.77-1.95-.66-2.63,0-.79.77-.61,1.84,0,2.63,5.47,7.04,10.07,14.7,14.04,22.68,1.99,3.99,3.9,8.02,5.72,12.09,1.79,4.01,3.88,7.9,5.69,11.88.45.99,1.72.21,1.6-.67-.32-2.3-.54-4.59-1.06-6.87Z"/>
  <path class="cls-1" d="m176.81,47.37c-.16-4.19-.71-8.33-1.52-12.44-1.58-8.08-4.74-15.88-8.67-23.08-2.22-4.07-5.08-7.72-7.94-11.36-1.07-1.37-3.26.39-2.38,1.84,2.08,3.42,3.67,7.04,5.43,10.62,1.7,3.44,3.11,6.98,4.47,10.56,2.78,7.35,4.75,15.02,6.31,22.71.43,2.1.82,4.21,1.15,6.33.34,2.21.36,4.57.92,6.73.21.81,1.41.8,1.63,0,.5-1.86.47-3.94.55-5.86.08-2.01.13-4.04.05-6.05Z"/>
  <path class="cls-1" d="m244.81,6c-.25-.64-.58-1.39-1.1-1.86-.52-.46-1.38-.67-2.04-.86-.9-.26-1.3.94-.6,1.43.5.36.6,1.42.61,2.01.02.68-.09,1.36-.25,2.02-.5,2.03-1.22,4.03-1.88,6.02-1.5,4.56-2.86,9.17-4.39,13.72-1.5,4.44-3.29,8.88-4.52,13.4-.62,2.26-1.44,4.46-2.09,6.72-.67,2.32-1.65,4.55-2.28,6.88-.31,1.14,1.2,1.68,1.83.77,1.16-1.68,2.02-3.53,3.02-5.3,1-1.78,2-3.52,2.89-5.36,1.82-3.74,3.41-7.53,4.85-11.44,1.39-3.76,2.57-7.61,3.62-11.48,1.06-3.9,2.12-7.86,2.68-11.87.22-1.56.22-3.3-.35-4.79Z"/>
  <path class="cls-1" d="m282.14,26.27c-2.23,8.53-5.55,16.77-9.55,24.62-4.02,7.89-8.89,15.24-13.79,22.58-.59.88.64,1.59,1.35,1.04,11.12-8.68,18.87-22.29,22.36-35.85,1.02-3.96,1.75-7.98,2.23-12.04.18-1.51-2.24-1.77-2.61-.35Z"/>
  <path class="cls-1" d="m323.97,74.15c-3.27,2.08-6.64,4-9.85,6.17-3.22,2.18-6.47,4.32-9.69,6.51-6.53,4.43-13.14,8.74-19.58,13.29-1.8,1.27-3.55,2.59-5.32,3.89-.88.65-1.68,1.35-2.51,2.05-.85.72-1.81,1.28-2.62,2.05-.5.47.02,1.34.67,1.15.82-.24,1.58-.61,2.37-.94.95-.41,1.93-.69,2.88-1.11,1.86-.82,3.73-1.67,5.52-2.61,3.45-1.81,6.87-3.72,10.16-5.8,6.71-4.24,13.17-8.86,19.35-13.84,3.51-2.82,6.74-5.93,9.97-9.06.89-.87-.27-2.43-1.34-1.74Z"/>
  <path class="cls-1" d="m353.59,112.29c-2.29.38-4.51,1.07-6.78,1.52-2.27.45-4.52,1-6.76,1.6-4.47,1.2-8.9,2.52-13.33,3.85-4.43,1.33-8.83,2.8-13.23,4.22-4.29,1.38-8.78,2.69-12.71,4.91-.56.32-.34,1.3.34,1.25,4.5-.32,8.93-1.7,13.26-2.93,4.53-1.28,9.08-2.51,13.58-3.89,4.43-1.35,8.85-2.71,13.24-4.2,2.2-.75,4.38-1.55,6.52-2.44,2.13-.88,4.35-1.54,6.46-2.48.85-.38.2-1.53-.59-1.4Z"/>
  <path class="cls-1" d="m352.9,169.45c-6.73-1.15-13.65-.67-20.38.26-6.83.94-13.59,2.46-20.04,4.93-1.21.46-.72,2.07.52,1.9,6.69-.9,13.35-2.02,20.05-2.9,6.61-.87,13.33-1.44,19.85-2.89.62-.14.66-1.18,0-1.3Z"/>
  <path class="cls-1" d="m360.02,219.88c-2.77-2.51-6.27-3.78-9.74-5-3.64-1.28-7.68-1.86-11.52-2.13-3.76-.26-7.49-.18-11.23.23-3.71.41-7.68,1.06-11.08,2.66-1.15.54-.51,2.23.62,2.27,3.54.12,7.13-.29,10.69-.32,3.59-.03,7.21.16,10.78.55,3.57.39,7.09,1.01,10.64,1.56,3.42.53,6.8,1.44,10.27,1.53.67.02,1.08-.9.56-1.36Z"/>
  <path class="cls-1" d="m348.23,275.4c-1.01-1.35-2.52-2.36-3.9-3.31-1.4-.97-2.84-1.83-4.31-2.68-3.22-1.84-6.59-3.29-10.03-4.65-6.59-2.61-13.54-4.81-20.63-5.45-1.23-.11-1.75,1.83-.64,2.36,6.31,3.02,12.96,5.35,19.44,7.98,3.21,1.3,6.36,2.71,9.6,3.93,1.57.59,3.12,1.21,4.71,1.75,1.6.55,3.33,1.26,5.02,1.36.61.04,1.13-.78.74-1.29Z"/>
  <path class="cls-1" d="m331.85,306.62c-1.21-1.14-2.3-2.42-3.57-3.51-1.29-1.12-2.74-2.13-4.15-3.11-2.86-1.98-5.94-3.77-9.06-5.32-3.11-1.55-6.24-3.03-9.46-4.34-1.57-.64-3.13-1.32-4.75-1.81-1.32-.41-2.92-.97-4.27-.45-.28.11-.55.42-.43.75.54,1.39,1.89,2.16,3.09,2.93,1.44.91,2.96,1.7,4.44,2.54,2.98,1.68,5.98,3.31,8.97,4.99,2.98,1.67,6.01,3.32,9.09,4.81,1.48.71,2.97,1.44,4.48,2.07,1.6.67,3.28,1.09,4.88,1.73.71.28,1.25-.77.73-1.25Z"/>
  <path class="cls-1" d="m48.61,101.8c-2.32-1.98-4.6-3.9-7.11-5.66-2.6-1.83-5.35-3.49-8.13-5.04-5.52-3.08-11.21-5.76-17.03-8.23-1.1-.46-2.08,1.07-.96,1.65,5.51,2.86,10.91,5.94,16.26,9.09,2.61,1.54,5.2,3.12,7.85,4.59,2.79,1.55,5.62,2.99,8.43,4.49.54.29,1.19-.45.68-.88Z"/>
  <path class="cls-1" d="m49.6,125.97c-1.52-.65-3.26-1.06-4.89-1.34-1.81-.32-3.63-.59-5.45-.8-3.64-.42-7.3-.64-10.96-.79-3.65-.15-7.3-.29-10.96-.3-1.74,0-3.49,0-5.23,0-1.54,0-3.16.24-4.6-.45-1.46-.7-2.49,1.18-1.25,2.13,2.66,2.05,6.4,2.01,9.58,2.36,3.73.41,7.46.74,11.2,1,3.73.26,7.46.48,11.21.51,1.83.02,3.65-.05,5.48-.15,1.86-.1,3.9-.26,5.68-.8.55-.17.81-1.1.18-1.37Z"/>
  <path class="cls-1" d="m42.19,168.17c-6.17-3.22-13.57-3.98-20.44-3.54-7.1.46-14,2.11-20.6,4.74-1.97.79-1.19,3.97.9,3.25,6.34-2.17,13.02-3.31,19.71-3.55,6.71-.24,13.34.48,20.03.6.79.01,1.13-1.14.41-1.51Z"/>
  <path class="cls-1" d="m36.26,217.17c-5.23-.46-10.67.88-15.8,1.74-2.56.43-5.11.88-7.67,1.3-2.71.45-5.41.79-8,1.77-.78.3-1.02,1.66,0,1.84,2.69.46,5.3.27,8,0,2.76-.27,5.5-.59,8.24-1.04,5.2-.86,10.96-1.78,15.51-4.6.48-.3.25-.97-.28-1.02Z"/>
  <path class="cls-1" d="m46.19,262.4c-2.3-.5-4.81-.08-7.11.23-2.61.35-5.19,1.12-7.69,1.93-4.8,1.56-9.84,3.5-14.08,6.28-1.36.89-.51,2.99,1.11,2.63,4.81-1.09,9.54-2.8,14.25-4.27,2.33-.73,4.72-1.39,6.99-2.28,2.23-.87,4.79-1.69,6.71-3.14.47-.35.52-1.22-.18-1.37Z"/>
  <path class="cls-1" d="m56.82,292.75c-1.07.09-2.05.34-3.09.58-1.13.26-2.24.43-3.36.76-2.2.66-4.39,1.37-6.53,2.22-4.28,1.71-8.46,3.53-12.61,5.52-1.38.66-.41,2.88,1.04,2.46,4.35-1.27,8.6-2.68,12.85-4.25,2.08-.76,4.12-1.67,6.12-2.61,2.01-.95,4.15-2.04,5.93-3.38.49-.37.42-1.38-.35-1.31Z"/>
  <g>
    <path class="cls-1" d="m24.47,384.19v-68.86h22.48c2.6,0,4.84,1.38,6.72,4.15,1.88,2.77,2.82,6.07,2.82,9.9v5.31c0,3.87-.93,7.18-2.8,9.93s-4.11,4.12-6.74,4.12h-4.05l12.98,32.63c.4.96.6,1.92.6,2.88,0,1.25-.33,2.33-.99,3.24-.66.9-1.4,1.35-2.24,1.35-1.27,0-2.23-.82-2.88-2.48l-14.88-37.62h-4.59v35.46c0,1.29-.32,2.39-.96,3.29-.64.9-1.41,1.35-2.29,1.35s-1.63-.45-2.25-1.35c-.62-.9-.93-2-.93-3.29Zm6.36-44.75h16.12c.88,0,1.63-.45,2.25-1.35.62-.9.93-2,.93-3.29v-5.42c0-1.29-.31-2.39-.93-3.29-.62-.9-1.37-1.35-2.25-1.35h-16.12v14.71Z"/>
    <path class="cls-1" d="m103.21,352.94v11.23c0,1.25-.32,2.34-.95,3.26-.63.92-1.38,1.38-2.23,1.38h-22.48v2.71c0,1.59.47,2.93,1.4,4.04l1.85,2.27c1.01,1.14,1.97,1.71,2.88,1.71h16.35c.86,0,1.6.45,2.23,1.35.63.9.95,2,.95,3.29s-.32,2.34-.97,3.26c-.64.92-1.38,1.38-2.21,1.38h-16.76c-1.11,0-2.28-.34-3.5-1.02-1.22-.68-2.13-1.39-2.71-2.13l-2.84-3.65c-.88-1.03-1.62-2.47-2.21-4.31-.59-1.84-.89-3.54-.89-5.09v-21.3c0-1.22.32-2.86.97-4.92s1.46-3.67,2.44-4.81l2.65-3.04c1.74-2.06,3.67-3.1,5.79-3.1h8.93c2.25,0,4.36,1.36,6.36,4.09l2.38,3.32c1.72,2.25,2.57,5.61,2.57,10.07Zm-25.58-.72v7.19h19.3v-6.47c0-1.73-.37-3.06-1.1-3.98l-1.85-2.38c-.96-1.14-1.82-1.71-2.57-1.71h-7.98c-.98,0-1.88.5-2.69,1.49l-1.85,2.27c-.83.92-1.25,2.12-1.25,3.6Z"/>
    <path class="cls-1" d="m126.9,335.46h14.57c2.27,0,4.28.99,6.02,2.96s2.61,3.9,2.61,5.78c0,1.33-.32,2.42-.97,3.26s-1.36,1.27-2.14,1.27c-1.01,0-1.93-.66-2.76-1.99-.83-1.33-1.7-1.99-2.61-1.99h-14.38c-1.41,0-2.12.86-2.12,2.58,0,1.21.47,2.12,1.41,2.74l16.9,11c1.72,1.11,3.12,2.88,4.22,5.34,1.1,2.45,1.65,5.17,1.65,8.16,0,3.98-.97,7.36-2.89,10.12-1.93,2.77-4.12,4.15-6.56,4.15h-12.87c-2.22,0-4.28-.98-6.19-2.93-1.9-1.95-2.86-3.85-2.86-5.7,0-1.22.31-2.29.93-3.24.62-.94,1.42-1.41,2.4-1.41.81,0,1.67.66,2.59,1.99.92,1.33,2.25,1.99,3.99,1.99h11.84c.93,0,1.72-.53,2.35-1.58.63-1.05.95-2.26.95-3.62,0-2.1-.71-3.61-2.12-4.54l-17.07-11.23c-1.64-1.07-2.9-2.62-3.78-4.65-.88-2.03-1.32-4.09-1.32-6.19,0-3.32.79-6.2,2.37-8.63,1.58-2.43,3.52-3.65,5.85-3.65Z"/>
    <path class="cls-1" d="m171.25,383.52v20.58c0,1.33-.31,2.45-.93,3.37-.62.92-1.37,1.38-2.25,1.38s-1.65-.46-2.29-1.38c-.64-.92-.97-2.05-.97-3.37v-66.26c0-1.25.32-2.34.95-3.26.63-.92,1.4-1.38,2.31-1.38.86,0,1.6.46,2.23,1.38.63.92.95,2.01.95,3.26v2.99c3.08-5.01,6.12-7.52,9.12-7.52h1.48c2.24,0,4.31,1.22,6.21,3.65l5.3,6.69c2.32,2.95,3.48,6.69,3.48,11.23v14.49c0,4.57-1.25,8.43-3.75,11.56l-5.18,6.53c-1.72,2.29-3.89,3.43-6.51,3.43h-1.4c-2.47,0-4.57-1.25-6.28-3.76l-2.46-3.6Zm8.97-2.05h1.63c.78,0,1.61-.57,2.5-1.72l4.96-6.36c.83-.96,1.25-2.27,1.25-3.93v-14.99c0-1.47-.47-2.78-1.4-3.93l-5.34-6.69c-.61-.77-1.26-1.16-1.97-1.16h-1.85c-.71,0-1.63.85-2.76,2.55l-4.73,6.86c-.83,1.22-1.25,2.58-1.25,4.09v11.89c0,1.44.47,2.84,1.4,4.2l4.58,6.69c1.14,1.66,2.13,2.49,2.99,2.49Z"/>
    <path class="cls-1" d="m221.1,355.31h12.47c.68,0,1.67.22,2.96.66l-.07-6.58c0-1.29-.31-2.39-.93-3.29-.62-.9-1.37-1.35-2.26-1.35h-12.1c-.86,0-1.61-.46-2.24-1.38-.63-.92-.95-2.01-.95-3.26s.31-2.39.93-3.29c.62-.9,1.37-1.35,2.26-1.35h12.09c2.63,0,4.87,1.35,6.73,4.04s2.82,5.99,2.9,9.9l.79,34.79c0,1.29-.32,2.39-.95,3.29-.63.9-1.37,1.35-2.23,1.35-.91,0-1.68-.45-2.31-1.35s-.95-2-.95-3.29l-5.38,4.65h-10.76c-2.68,0-4.95-1.36-6.82-4.09-1.87-2.73-2.8-6.05-2.8-9.96v-5.42c0-3.87.94-7.18,2.82-9.93,1.88-2.75,4.15-4.12,6.8-4.12Zm15.9,18.09l-.19-3.93c-.03-1.33-.34-2.43-.95-3.32-.61-.88-1.35-1.33-2.24-1.33h-12.54c-.88,0-1.64.45-2.25,1.35s-.93,2-.93,3.29v5.2c0,1.25.31,2.34.95,3.26.63.92,1.38,1.38,2.23,1.38h8.98l6.93-5.92Z"/>
    <path class="cls-1" d="m277.61,356.05v11.02l4.24,10.76,2.2-10.62.67-27.11c.05-1.25.38-2.34,1-3.26.62-.92,1.34-1.38,2.18-1.38.88,0,1.64.45,2.27,1.35.63.9.93,2,.91,3.29l-.68,28.93-3.41,16.43c-.48,2.25-1.47,3.38-2.96,3.38h-3.42c-1.19,0-2.12-.86-2.81-2.58l-3.45-8.76-3.46,8.64c-.78,1.8-1.72,2.7-2.8,2.7h-3.34c-.73,0-1.4-.31-1.99-.94-.59-.63-.97-1.36-1.12-2.21l-3.33-17.04-.72-28.54c-.03-1.22.29-2.29.95-3.24.66-.94,1.42-1.41,2.31-1.41.81,0,1.52.43,2.14,1.3s.94,1.98.97,3.35l.73,27.21,2.07,10.4,4.43-10.93v-10.72c0-1.28.32-2.37.95-3.27.63-.9,1.4-1.35,2.31-1.35.86,0,1.6.45,2.23,1.34s.95,1.98.95,3.26Z"/>
    <path class="cls-1" d="m320.28,346.24l-8.68,8.24v29.7c0,1.25-.32,2.34-.95,3.26-.63.92-1.37,1.38-2.23,1.38s-1.6-.46-2.23-1.38c-.63-.92-.95-2.01-.95-3.26v-44.08c0-1.29.31-2.41.93-3.35.62-.94,1.37-1.41,2.25-1.41s1.6.47,2.23,1.41c.63.94.95,2.06.95,3.35v3.1l5.8-5.14c1.95-1.81,4.14-2.71,6.59-2.71h2.96c2.53,0,4.71,1.31,6.55,3.93,1.84,2.62,2.82,5.85,2.92,9.68l.87,35.23c.02,1.25-.28,2.34-.91,3.26-.63.92-1.39,1.38-2.27,1.38-.83,0-1.56-.42-2.19-1.24-.63-.83-.96-1.96-.98-3.4l-.95-34.68c-.08-3.24-1.24-4.87-3.49-4.87h-3.11c-.96,0-2,.54-3.11,1.6Z"/>
  </g>
  <path class="cls-1" d="m184.6,361.95c-.18-.66-.52-1.23-1-1.71-.26-.2-.52-.4-.79-.61-.61-.35-1.26-.53-1.96-.53-.53-.02-1.03.09-1.5.33-.48.16-.9.42-1.25.8-.38.35-.65.77-.8,1.25-.24.46-.35.96-.33,1.5,0,.7.18,1.35.53,1.96.18.28.39.54.61.79.48.48,1.06.81,1.71,1,0,0,.01,0,.02,0,.01,0,.03,0,.04.01.51.16,1.01.18,1.52.07.51-.02.98-.17,1.42-.45.26-.2.51-.4.77-.6.47-.48.8-1.04.98-1.68,0-.02.01-.03.02-.05.22-.55.18-1.55,0-2.1Z"/>
  <path class="cls-1" d="m228.95,371.45c-.1-.43-.3-.8-.59-1.12-.15-.25-.34-.44-.59-.59-.32-.29-.69-.49-1.12-.59-.29-.04-.58-.08-.87-.12-.59,0-1.15.15-1.66.45,0,0,0,0,0,0l-.67.51c-.32.3-.55.65-.68,1.06-.15.26-.22.53-.22.83-.1.44-.08.87.06,1.31,0,.01,0,.02.01.03,0,.01.32.76.33.77,0,0,0,0,0,0,0,0,0,0,0,.01,0,0,0,0,0,0,.07.11.16.22.25.32.14.24.33.42.56.56.2.19.43.33.69.4.12.08.24.13.38.16,0,0,0,0,0,0,0,0,0,0,0,0,.02,0,.04.02.06.02.44.14.87.16,1.31.06.3,0,.57-.08.83-.22.41-.13.76-.36,1.06-.68,0,0,0,0,0,0,.32-.3.55-.65.68-1.06.21-.39.3-.81.28-1.27-.04-.29-.08-.58-.12-.87Z"/>
  <path class="cls-1" d="m42.92,329.41c-.15-.47-.42-.89-.79-1.23-.35-.37-.76-.64-1.23-.79-.46-.24-.95-.35-1.47-.33-.34.05-.68.09-1.02.14-.65.18-1.21.51-1.69.98-.2.26-.4.52-.6.77-.35.6-.52,1.24-.52,1.93.01.2.03.41.04.61-.02.52.09,1.01.33,1.46.15.47.41.88.78,1.22.34.37.75.63,1.22.78.45.24.94.35,1.46.33.34-.05.67-.09,1.01-.14.64-.18,1.2-.5,1.67-.97.2-.26.39-.51.59-.77.34-.59.52-1.23.52-1.91.01-.2.03-.41.04-.61.02-.53-.09-1.02-.33-1.47Z"/>
  <path class="cls-1" d="m90.67,351.13c-.19-.69-.54-1.29-1.05-1.8-.07-.06-.15-.12-.22-.18-.29-.23-.58-.45-.88-.68-.34-.15-.69-.29-1.03-.44-.57-.18-1.15-.21-1.72-.08-.39,0-.75.1-1.09.3-.37.1-.68.29-.95.56-.32.19-.58.45-.78.78-.27.27-.45.59-.56.95-.27.52-.39,1.07-.37,1.67.05.38.1.77.15,1.15.15.34.29.69.44,1.03.23.29.45.58.68.88l.88.68c.34.15.69.29,1.03.44.57.18,1.15.21,1.72.08.39,0,.75-.1,1.09-.3.54-.17,1-.47,1.39-.89.07-.06.15-.12.22-.18.4-.37.68-.81.84-1.31.25-.49.37-1.01.35-1.57-.05-.36-.1-.72-.15-1.08Z"/>
  <path class="cls-1" d="m216.3,339.58c-.19-.67-.53-1.26-1.02-1.75-.27-.21-.54-.41-.8-.62-.62-.36-1.29-.54-2-.54-.55-.02-1.06.09-1.53.34-.49.16-.92.43-1.28.82-.39.36-.66.78-.82,1.28-.25.47-.36.98-.34,1.53.05.35.09.7.14,1.05.19.67.53,1.26,1.02,1.75.27.21.54.41.8.62.62.36,1.29.54,2,.54.55.02,1.06-.09,1.53-.34.49-.16.92-.43,1.28-.82.39-.36.66-.78.82-1.28.25-.47.36-.98.34-1.53-.05-.35-.09-.7-.14-1.05Z"/>
</svg>