<svg id="Capa_1" data-name="Capa 1" xmlns="http://www.w3.org/2000/svg" viewBox="0 0 1460.36 1460.36"><defs><style>.cls-1,.cls-4{fill:none;}.cls-1,.cls-3,.cls-4{stroke:#fff;stroke-miterlimit:10;}.cls-1{stroke-width:41px;}.cls-2,.cls-3{fill:#fff;}.cls-3{stroke-width:8px;}.cls-4{stroke-width:65px;}</style></defs><path class="cls-1" d="M617.27,177.69c0-149.53-117.12-271.71-264.63-279.8C188.86-111.09,51.41,23.43,57,187.35a279.59,279.59,0,0,0,8.39,59.28.2.2,0,0,1,0,.11A279.68,279.68,0,0,0,57,306C51.41,470,188.87,604.47,352.64,595.48c147.51-8.1,264.63-130.27,264.63-279.8a280.78,280.78,0,0,0-8.56-68.94.2.2,0,0,1,0-.11A280.78,280.78,0,0,0,617.27,177.69Z" transform="translate(397.5 552.49)"/><path class="cls-2" d="M850.3,124.79c-6.25-10.06-6-21.12-6.49-32a333.35,333.35,0,0,0-5.55-46.68c-17.87-96.9-60.76-182.23-130.14-255.27-78.73-82.88-174.83-135.89-290.69-155.16-14.05-2.34-28.18-4.2-42.28-6.28H298.93c-.76,2.19-2.73,2-4.55,2.11-17.55.7-34.87,3.51-51.9,7.12-120.31,25.46-218,85.64-294.42,177.45C-120.64-101.44-158.85-7.48-165.6,98c-.47,7.43-1.21,14.5-7.43,20.49-4.76,4.59-5.61,11.35-5.55,18,.15,18.21,0,36.41,0,54.61q0,139.74,0,279.48c0,21.62,11.55,32.89,34.14,33.33,10.83.21,21.72.7,32.49-.14,9.7-.76,12.39,1.79,12.32,11.51-.25,37.11,8.62,71.82,32.5,102.17,33.07,42,79.53,63,130.8,76.3C116,707.19,169.47,710.62,223.38,709c6.66-.2,11.64.66,16.37,6.23C246,722.63,255.09,726,265.5,726c50.81-.13,101.63,0,152.44-.1,20.2,0,35.17-14.18,35.66-33.48q.4-15.51,0-31c-.47-19.88-15.4-33.87-36.4-33.91-50.44-.11-100.88,0-151.31-.09-12.66,0-24.84,4.39-29,14.7-5.86,14.56-16.17,13.72-28.1,13.28-7.45-.27-14.94.19-22.41.1-45.62-.51-90.66-4.28-134-19.38C-8.26,615-41.36,571.62-41.92,512.2c-.06-6.45,1.34-8.67,8.49-8.47,17.92.49,35.86.36,53.79.09,22.59-.33,34.16-11.69,34.16-33.3q.06-166,0-331.94c0-22-12.12-33.58-35.09-33.64-25.78-.06-51.56-.23-77.34.12-7.12.1-9.9-.34-9.18-8.81,3.51-41.78,12.59-82.34,30-120.72C23.12-157.17,124.82-242.83,275.21-271c64.21-12,127.7-5.73,189.42,14.88,66.75,22.28,123.6,59,170.72,109.33C700.26-77.54,737.26,3.33,745.5,96.19c.74,8.36-2.08,9-9.31,8.88-27.27-.36-54.54-.2-81.82-.13-22.45.06-34.8,11.63-34.81,32.8q-.07,166.52,0,333c0,21.18,11.37,32.89,33.24,33q83.51.45,167,0c21.21-.13,32.77-12,32.78-32.39q.09-166,.08-331.94C852.66,134.37,852.93,129,850.3,124.79ZM271,662.9a8.21,8.21,0,0,1,8.21-8.2H406.35a8.2,8.2,0,0,1,8.2,8.2v29.39a8.2,8.2,0,0,1-8.2,8.2H279.24a8.21,8.21,0,0,1-8.21-8.2Zm-273-509.28a19.48,19.48,0,0,1,19.48,19.47V440.61A19.48,19.48,0,0,1-1.93,460.08h-121.3a19.48,19.48,0,0,1-19.48-19.47V173.09a19.48,19.48,0,0,1,19.48-19.47Zm818,287a19.47,19.47,0,0,1-19.47,19.47H675.32a19.47,19.47,0,0,1-19.47-19.47V173.09a19.47,19.47,0,0,1,19.47-19.47H796.63a19.47,19.47,0,0,1,19.47,19.47Z" transform="translate(397.5 552.49)"/><path class="cls-3" d="M575.28,169.12c-.24-6-2.67-9.05-6.89-11a33.79,33.79,0,0,0-5.09-2c-13.32-3.72-26.95-4.56-40.52-5-17.37-.61-34.72,1.3-52.08,1.66a453.34,453.34,0,0,0-105,14.61c-18.16,4.71-36.29,5.55-54.68.7a438.84,438.84,0,0,0-51.6-10.82c-23.51-3.25-47.14-4.4-67.35-5-23.93-1.24-44.43-2.34-64.88.68-7.54,1.11-15.22,1.62-22.33,5.28-3,1.56-6,3.36-6.51,7.93a82.13,82.13,0,0,0-.51,15.9c.66,7.4,1.14,15.15,7.12,19.74,9,6.93,12.3,17.25,13.23,29.23a228.14,228.14,0,0,0,12.83,60.9c9.76,26.67,26.21,43.51,50.66,48.13,22.3,4.22,44.55,2.93,66.11-5.31,35.2-13.44,59.19-40,67.75-83.8,1.77-9,4.37-17.6,9.08-25.14,7.23-11.59,16.63-11.72,24-.18a64.46,64.46,0,0,1,8.66,23c8.07,43.5,31,71,66,85.15,18.8,7.61,38.19,9.2,58,7.69,29.36-2.24,50-18.37,61.55-50.77,6.9-19.28,10.54-39.31,12.35-60,1.05-11.94,4.37-22.34,13.43-29.09,2.93-2.19,4.52-5.56,5.45-9.42C575.88,184.65,575.58,177,575.28,169.12ZM306.84,218.05c-.49,23.87-4.51,46.77-17.1,66.3-15.12,23.43-35.89,35.6-59.91,40.77a112.69,112.69,0,0,1-46.44.58c-25-5.07-38.36-24.37-44.3-52.23-4.62-21.72-4.1-43.88-3.8-66,.27-19.82,5.58-28.07,21.69-34.21,14.88-5.67,30.26-6.11,48.82-5.93,20.51.63,44.08,2.26,67.42,7a55,55,0,0,1,8.65,2.68C299.54,183.82,307.3,196,306.84,218.05Zm229.29,45.22c-2.87,19.56-8.35,37.59-22.19,50.44C504.8,322.2,494.1,325.86,482.8,327c-21.54,2.08-42.72.16-62.88-10.05C390.53,302,373,276.13,368.23,238.48a156.26,156.26,0,0,1-1.75-22.16c.29-20.21,7.79-32.34,23.91-38.85,11.43-4.62,23.36-5.73,35.24-7.1,14.9-1.71,29.83-2.87,46.93-3.34,14.29.56,30.79.36,46.53,7.34a34.29,34.29,0,0,1,13.84,10.43,22,22,0,0,1,5,13.28C538.19,219.84,539.3,241.66,536.13,263.27Z" transform="translate(397.5 552.49)"/><circle class="cls-4" cx="730.18" cy="730.18" r="697.68"/></svg>